<?xml version="1.0"?>
<svg xmlns="http://www.w3.org/2000/svg" xmlns:xlink="http://www.w3.org/1999/xlink" version="1.1" id="Capa_1" x="0px" y="0px" viewBox="0 0 512.002 512.002" style="enable-background:new 0 0 512.002 512.002;" xml:space="preserve" width="512px" height="512px" class=""><g><g>
	<g>
		<path d="M400.272,193.586c-3.146-1.938-7.083-2.104-10.375-0.458c-5.046,2.527-100.579,51.904-144.563,165.867V190.893    c3.523,0.605,7.066,1.109,10.667,1.109c35.292,0,64-28.708,64-64V10.669c0-4.104-2.354-7.833-6.042-9.604    c-3.708-1.771-8.083-1.271-11.292,1.271l-34.029,27.221l-26.43-26.43c-4.167-4.167-10.917-4.167-15.083,0l-26.434,26.434    L166.668,2.336c-3.219-2.563-7.604-3.063-11.292-1.271c-3.688,1.771-6.042,5.5-6.042,9.604v117.333c0,35.292,28.708,64,64,64    c3.652,0,7.18-0.487,10.667-1.078v115.411c-35.273-66.681-102.108-92.017-103.021-92.354c-3.26-1.208-6.927-0.688-9.76,1.292    c-2.854,1.979-4.552,5.25-4.552,8.729c0,115.404,91.262,165.648,117.333,177.656v99.677c0,5.896,4.771,10.667,10.667,10.667    c5.896,0,10.667-4.771,10.667-10.667V464.85c28.766-16.928,160-102.865,160-262.181    C405.334,198.981,403.418,195.544,400.272,193.586z" data-original="#000000" class="active-path" data-old_color="#D6DADD" fill="#D1D6DA"/>
	</g>
</g></g> </svg>
